<svg xmlns="http://www.w3.org/2000/svg" viewBox="0 0 511.998 511.998"><path d="M206.932 0C178.682 0 155.7 22.982 155.7 51.232s22.983 51.232 51.232 51.232c28.25 0 51.232-22.982 51.232-51.232S235.182 0 206.932 0zm0 87.463c-19.978 0-36.231-16.253-36.231-36.231s16.254-36.231 36.231-36.231c19.978 0 36.231 16.254 36.231 36.231s-16.253 36.231-36.231 36.231zM399 312.274a7.503 7.503 0 0 0-10.607.104l-62.955 64.205-22.232-23.261a7.502 7.502 0 0 0-10.845 10.365l27.586 28.862a7.501 7.501 0 0 0 10.778.069l68.379-69.736a7.503 7.503 0 0 0-.104-10.608zm41.383 50.098a7.502 7.502 0 0 0-8.818 5.895c-8.6 43.273-39.135 80.246-79.691 96.494a7.5 7.5 0 0 0 5.579 13.925c46.691-18.705 79.427-60.202 88.824-107.495a7.5 7.5 0 0 0-5.894-8.819z"/><path d="M427.508 246.793c-20.064 11.335-38.989 11.713-56.253 1.124-13.724-8.417-21.415-20.746-21.722-21.244a14.374 14.374 0 0 0-11.65-6.911c-13.954-39.069-37.243-66.207-54.787-82.364-11.189-10.304-25.712-15.978-40.895-15.978h-70.537c-16.21 0-31.639 6.091-43.444 17.15-24.306 22.772-65.119 72.52-65.358 149.83-.051 16.21 12.819 29.753 28.688 30.19 16.577.485 30.349-12.818 30.349-29.507 0-29.014 8.149-56.327 23.743-80.083v276.976c0 14.349 11.674 26.023 26.023 26.023h16.747c7.24 0 13.8-2.972 18.522-7.761 4.722 4.789 11.281 7.761 18.522 7.761h16.747c14.349 0 26.023-11.674 26.023-26.023v-39.541c13.875 13.939 30.395 24.937 48.649 32.249a7.5 7.5 0 0 0 5.579-13.925c-48.29-19.347-82.259-67.31-82.259-122.726v-81.756c30.366 16.818 59.767 12.716 83.786-9.698 5.51-5.062 10-10.419 13.035-15.179.047-.072.109-.163.15-.227 2.154 3.327 11.153 16.272 26.251 25.532 15.182 9.314 39.729 16.741 70.721-.429v74.451a7.5 7.5 0 0 0 7.5 7.5 7.5 7.5 0 0 0 7.5-7.5v-75.312c-.003-11.086-11.96-18.081-21.63-12.622zM220.12 136.421l-8.981 10.668a5.497 5.497 0 0 1-8.413 0l-8.982-10.668h26.376zm48.104 118.486v-43.966c8.641 13.568 14.834 28.191 18.5 43.708-6.012 1.318-12.168 1.4-18.5.258zm32.598-5.766c-6.024-24.073-17.575-46.134-34.417-65.692-4.535-5.266-13.185-2.03-13.185 4.894v61.719c-3.231-1.471-7.283-3.722-7.394-3.774-9.53-4.485-20.638 2.456-20.638 13.128v82.619c0 31.398 9.709 61.426 28.032 86.768v57.175h.004c0 6.077-4.944 11.022-11.022 11.022h-16.747c-6.077 0-11.022-4.943-11.022-11.022v-154.14c0-4.143-3.358-7.5-7.5-7.5s-7.5 3.357-7.5 7.5v154.139c0 6.077-4.944 11.022-11.022 11.022h-16.747c-6.077 0-11.022-4.943-11.022-11.022V186.869c0-6.899-8.571-10.124-13.125-4.962-26.575 30.116-40.621 67.178-40.621 107.177a14.507 14.507 0 0 1-14.934 14.512c-7.8-.215-14.126-7.01-14.1-15.148.222-71.678 38.071-117.81 60.614-138.929 9.015-8.446 20.8-13.098 33.187-13.098h2.471l17.116 20.328c8.193 9.734 23.18 9.721 31.363 0l17.115-20.328h2.471c11.409 0 22.323 4.266 30.734 12.011 16.615 15.302 38.787 41.201 51.615 78.614-5.712 8.619-14.423 16.844-23.726 22.095z"/></svg>